<svg width="18" height="18" viewBox="0 0 18 18" fill="none" xmlns="http://www.w3.org/2000/svg">
<path fill-rule="evenodd" clip-rule="evenodd" d="M8.9925 1.5C4.8525 1.5 1.5 4.86 1.5 9C1.5 13.14 4.8525 16.5 8.9925 16.5C13.14 16.5 16.5 13.14 16.5 9C16.5 4.86 13.14 1.5 8.9925 1.5ZM9.5 6C9.5 5.44772 9.05228 5 8.5 5C7.94772 5 7.5 5.44772 7.5 6V9.5C7.5 9.83435 7.6671 10.1466 7.9453 10.3321L10.9453 12.3321C11.4048 12.6384 12.0257 12.5142 12.3321 12.0547C12.6384 11.5952 12.5142 10.9743 12.0547 10.6679L9.5 8.96482V6Z" fill="#D0D3D4"/>
</svg>
