<svg width="24" height="24" viewBox="0 0 24 24" fill="none" xmlns="http://www.w3.org/2000/svg">
<path d="M21.8535 16.9816L19.8281 15.8179L21.7349 14.7144C21.9535 14.5868 22.0274 14.3062 21.8999 14.0876L21.4381 13.2959C21.3105 13.0772 21.0299 13.0034 20.8112 13.1309L17.9931 14.7635L16.7379 13.6453L19.5186 12.4194C19.6842 12.346 19.7917 12.1817 19.7917 12C19.7917 11.8183 19.6842 11.654 19.5186 11.5806L16.7003 10.3381L17.9932 9.60608L20.8247 11.2548C21.0434 11.3824 21.324 11.3085 21.4515 11.0898L21.9133 10.2982C22.0409 10.0795 21.967 9.79888 21.7483 9.67131L19.8268 8.55262L21.8535 7.38808C22.0732 7.26145 22.1485 6.98116 22.0216 6.76194L21.5621 5.96809C21.4353 5.74886 21.1542 5.67375 20.9345 5.80034L18.9057 6.966L18.9034 4.74382C18.9023 4.4907 18.6962 4.28642 18.4431 4.28758L17.5265 4.29166C17.2734 4.29278 17.0691 4.4989 17.0702 4.75203L17.075 8.01791L15.6666 8.8152L15.6639 6.09248C15.6836 5.9112 15.5932 5.73529 15.4348 5.64535C15.2754 5.55495 15.0785 5.56745 14.9334 5.67715L12.9166 7.07303V5.19809L15.7628 3.5688C15.9826 3.4432 16.059 3.16322 15.9334 2.94348L15.4787 2.1477C15.3531 1.92791 15.0731 1.85155 14.8534 1.97711L12.9167 3.08596V1.45835C12.9166 1.20518 12.7114 1 12.4583 1H12H11.5416C11.2885 1 11.0833 1.20522 11.0833 1.45835V3.09266L9.14653 1.97715C8.92675 1.85155 8.6468 1.92791 8.52121 2.1477L8.06651 2.94348C7.94091 3.16326 8.01727 3.44325 8.23705 3.5688L11.0833 5.20655V7.06371L9.08616 5.68686C9.00469 5.62507 8.90711 5.59375 8.80953 5.59375C8.80235 5.59284 8.79608 5.59332 8.79161 5.59375C8.53826 5.59375 8.33326 5.79875 8.33326 6.05209C8.33326 6.11388 8.33326 8.89057 8.33326 8.89057L6.93098 7.65169L6.94305 4.3663C6.94421 4.11317 6.73989 3.90705 6.48681 3.90593L5.57033 3.90185C5.3172 3.90073 5.11108 4.10501 5.10992 4.35809L5.1018 6.60063L3.06546 5.43064C2.84568 5.30409 2.56466 5.37916 2.43778 5.59839L1.97827 6.39223C1.85138 6.61146 1.92666 6.89179 2.14645 7.01837L4.17178 8.1821L2.26504 9.28558C2.04637 9.41315 1.97255 9.69378 2.10004 9.91245L2.56183 10.7041C2.6894 10.9228 2.97003 10.9966 3.1887 10.8691L6.00685 9.23646L7.26201 10.3547L4.48128 11.5806C4.31568 11.654 4.20826 11.8183 4.20826 12C4.20826 12.1817 4.31568 12.346 4.48128 12.4194L7.29965 13.6619L6.00667 14.3939L3.17521 12.7452C2.95654 12.6176 2.67591 12.6915 2.54842 12.9102L2.08664 13.7019C1.95906 13.9205 2.03292 14.2012 2.25159 14.3287L4.17316 15.4474L2.14645 16.612C1.92666 16.7386 1.85138 17.0189 1.97827 17.2381L2.43778 18.032C2.56466 18.2512 2.84572 18.3263 3.06546 18.1997L5.09419 17.034L5.09647 19.2562C5.09758 19.5093 5.30371 19.7136 5.55683 19.7125L6.4734 19.7084C6.72653 19.7073 6.9308 19.5012 6.92964 19.2481L6.92487 15.9821L8.33326 15.1848L8.33597 17.9076C8.31629 18.0888 8.40669 18.2648 8.56512 18.3547C8.72445 18.4451 8.92142 18.4326 9.06644 18.3229L11.0833 16.927V18.8019L8.23705 20.4312C8.01727 20.5568 7.94091 20.8368 8.06651 21.0565L8.52121 21.8523C8.6468 22.0721 8.92679 22.1484 9.14653 22.0229L11.0833 20.914V22.5417C11.0833 22.7948 11.2885 23 11.5416 23H12H12.4583C12.7114 23 12.9167 22.7948 12.9167 22.5417V20.9073L14.8534 22.0228C15.0732 22.1484 15.3531 22.0721 15.4787 21.8523L15.9334 21.0565C16.059 20.8367 15.9826 20.5567 15.7629 20.4312L12.9166 18.7934V16.9363L14.9138 18.3131C14.9952 18.3749 15.0928 18.4063 15.1904 18.4063C15.1976 18.4072 15.2038 18.4067 15.2083 18.4063C15.4616 18.4063 15.6667 18.2013 15.6667 17.9479C15.6667 17.8861 15.6667 15.1094 15.6667 15.1094L17.0689 16.3483L17.0569 19.6337C17.0557 19.8868 17.26 20.0929 17.5131 20.0941L18.4296 20.0981C18.6828 20.0993 18.8889 19.895 18.89 19.6419L18.8982 17.3993L20.9345 18.5693C21.1543 18.6959 21.4353 18.6208 21.5622 18.4016L22.0217 17.6077C22.1485 17.3885 22.0732 17.1082 21.8535 16.9816Z" fill="#56BB90"/>
</svg>
