<svg width="48" height="48" viewBox="0 0 48 48" fill="none" xmlns="http://www.w3.org/2000/svg">
<path d="M2 45L14.0732 33.0494M14.0732 33.0494L12.4268 31.4198L14.0732 29.7901M14.0732 33.0494L15.7195 34.679L17.3659 33.0494M14.0732 29.7901L17.3659 33.0494M14.0732 29.7901L11.3293 27.0741L34.378 5.34568M17.3659 33.0494L19.561 35.2222M34.378 5.34568L31.6341 2.62963L42.6098 12.9506M34.378 5.34568L36.5732 7.37366M42.6098 12.9506L45.3537 15.6667M42.6098 12.9506L40.2991 10.7778M42.6098 12.9506L36.3493 19M36.5732 7.37366L41.5122 2.62963M36.5732 7.37366L40.2991 10.7778M41.5122 2.62963L39.8659 1M41.5122 2.62963L45.3537 6.4321M47 8.06173L45.3537 6.4321M45.3537 6.4321L40.2991 10.7778" stroke="#56BB90" stroke-width="2" stroke-linecap="round" stroke-linejoin="round"/>
<path d="M33 23.0002C33.5239 22.3016 34.1268 22.0002 35 22.0002C35.8732 22.0002 37 23.1268 37 24C37 26.9998 37 35.5002 37 35.5002C37 35.5002 39 33 40.5 31.5002C41.3285 30.6718 42.75 30.6002 43.5 31.5002C44.125 32.2502 43.5 34.0002 43.5 34.0002C43.5 34.0002 40.1354 37.2745 38.5 40.0002C37 42.5002 34.1788 46.5002 30 46.5002C24 46.5002 22 42.7826 22 38.5002C22 33.0002 22 29.0006 22 25.0004C22 24.2964 22.7986 23.0609 23.5 23.0002C24.4727 22.9159 25.5 24.5002 25.5 24.5002M33 23.0002C33 26.3196 33 31.5002 33 31.5002M33 23.0002C33 22.0002 32.8086 20.0571 31.5 20.0002C30.3965 19.9522 29.452 21.3965 29.5 22.5M29.5 22.5C29.5 26.21 29.5 31.5002 29.5 31.5002M29.5 22.5C29.4565 21.5 28.3732 20.5 27.5 20.5C26.2301 20.5 25.5 21.6272 25.5 22.5004C25.5 23.5004 25.5 24.5002 25.5 24.5002M25.5 31.5002V24.5002" stroke="#56BB90" stroke-width="2" stroke-linecap="round" stroke-linejoin="round"/>
</svg>
