<svg width="48" height="48" viewBox="0 0 48 48" fill="none" xmlns="http://www.w3.org/2000/svg">
<path d="M31.5 41.4999L28.5 46.9999H8.99997C8.99997 46.9999 12.104 40.14 12 35.4999C11.908 31.3947 9.45215 28.6402 7.57831 25.9999C5.70447 23.3595 5 19.4999 5 19.4999M31.5 41.4999C31.5 41.4999 28 39.9999 26.5 38.4999C25 36.9999 25 35.9999 25 35.9999M31.5 41.4999C31.5 41.4999 35.5 42.4999 38 42.9999C38.9573 43.1914 39.9661 42.8173 40.5 41.9999C41.3541 40.692 40.8014 39.3971 41.5 37.9999C41.994 37.012 43.5 35.9999 43.5 35.9999L42.5 34.4999L44.5 33.4999L43 30.9999C43 30.9999 47.3571 29.4999 46.5 27.9999C44.5 24.4999 42.5 19.4999 42.5 19.4999C42.5 19.4999 44.5 17.9999 44.5 17.4999C44.5 16.4999 43.9022 15.6675 43.5 14.4999C42.4132 11.3452 42.1071 9.08702 40 6.49987C37.9477 3.98005 33.5 2.49987 31 1.99989C26.1789 1.03569 20.5 1.49988 20.5 1.49988" stroke="#56BB90" stroke-width="2" stroke-linecap="round" stroke-linejoin="round"/>
<path d="M19.6891 6.32611C19.2738 5.90569 18.7806 5.57219 18.2377 5.34465C17.6949 5.11711 17.1131 5 16.5255 5C15.9379 5 15.3561 5.11711 14.8133 5.34465C14.2704 5.57219 13.7772 5.90569 13.3619 6.32611L12.4998 7.19821L11.6377 6.32611C10.7987 5.4773 9.66066 5.00044 8.47407 5.00044C7.28747 5.00044 6.14947 5.4773 5.31042 6.32611C4.47137 7.17492 4 8.32616 4 9.52656C4 10.727 4.47137 11.8782 5.31042 12.727L6.1725 13.5991L12.4998 20L18.8271 13.5991L19.6891 12.727C20.1047 12.3068 20.4344 11.8079 20.6593 11.2587C20.8842 10.7096 21 10.121 21 9.52656C21 8.93214 20.8842 8.34355 20.6593 7.7944C20.4344 7.24526 20.1047 6.74633 19.6891 6.32611V6.32611Z" stroke="#56BB90" stroke-width="2" stroke-linecap="round" stroke-linejoin="round"/>
<path d="M19.6891 6.32611C19.2738 5.90569 18.7806 5.57219 18.2377 5.34465C17.6949 5.11711 17.1131 5 16.5255 5C15.9379 5 15.3561 5.11711 14.8133 5.34465C14.2704 5.57219 13.7772 5.90569 13.3619 6.32611L12.4998 7.19821L11.6377 6.32611C10.7987 5.4773 9.66066 5.00044 8.47407 5.00044C7.28747 5.00044 6.14947 5.4773 5.31042 6.32611C4.47137 7.17492 4 8.32616 4 9.52656C4 10.727 4.47137 11.8782 5.31042 12.727L6.1725 13.5991L12.4998 20L18.8271 13.5991L19.6891 12.727C20.1047 12.3068 20.4344 11.8079 20.6593 11.2587C20.8842 10.7096 21 10.121 21 9.52656C21 8.93214 20.8842 8.34355 20.6593 7.7944C20.4344 7.24526 20.1047 6.74633 19.6891 6.32611V6.32611Z" stroke="#56BB90" stroke-width="2" stroke-linecap="round" stroke-linejoin="round"/>
</svg>
