<svg width="48" height="48" viewBox="0 0 48 48" fill="none" xmlns="http://www.w3.org/2000/svg">
<g clip-path="url(#clip0_76_245)">
<path d="M1 42C1 42 6.5 35 9 31.5C11.1202 28.5317 10.5556 24.2076 13 21.5C14.5364 19.7982 17.5 18 17.5 18M26 30C26 30 25.5 32.5 25 35.5C24.75 37 24.2382 38.0666 23.75 38.75M23.75 38.75C23.2618 39.4334 22.5 40.5 22.5 40.5C22.5 40.5 21.0374 42.4693 20 42C19.3634 41.712 19.2301 41.1494 19.1024 40.5M23.75 38.75C22.9647 39.8602 23.6402 42 25 42C26 42 26.719 40.4763 27.5 39.5M27.5 39.5C28.281 38.5237 29.2548 37.226 29.5 36C30 33.5 30.5 30 30.5 30M27.5 39.5C28.281 40.0858 28.5238 41.0149 29.5 41C30.6755 40.982 31.5 39.75 32 39M32 39C32.5 38.25 32.6245 37.8181 33 37C33.5702 35.7578 33 33.5 33 33.5M32 39C32.5858 39.6834 32.1157 40.3323 33 40.5C33.8579 40.6627 34.3825 40.1175 35 39.5C35.6175 38.8825 35.711 38.324 36 37.5C36.3931 36.3792 36.5 34.5 36.5 34.5M17.5 18L19.1024 17C19.1024 17 23.9025 15.7469 26 17.5C26.7491 18.1261 27.0171 18.5238 27 19.5C26.9806 20.6044 25.6046 21.5 24.5 21.5C23 21.5 21.5 21.5 21.5 21.5C21.5 21.5 20.1211 24.8203 20 27C19.8254 30.1437 21.0618 32.402 20.5 35.5C20.1248 37.5693 19 38 19 40C19 40.1745 19.0705 40.3378 19.1024 40.5M17.5 18C17.5 18 18.0075 15.2477 19 13.5C20.7167 10.4769 23.5202 10.4366 26 8C28.6754 5.37111 32 0.5 32 0.5M19.1024 40.5L17.5 41L13 46.5" stroke="#56BB90" stroke-width="2" stroke-linecap="round" stroke-linejoin="round"/>
<rect x="33" y="31" width="5" height="3" rx="1.5" stroke="#56BB90" stroke-width="2"/>
<rect x="34" y="27" width="5" height="3" rx="1.5" stroke="#56BB90" stroke-width="2"/>
<rect x="35" y="23" width="5" height="3" rx="1.5" stroke="#56BB90" stroke-width="2"/>
<rect x="36" y="19" width="5" height="3" rx="1.5" stroke="#56BB90" stroke-width="2"/>
<path d="M46.5 4L38.5 14V19" stroke="#56BB90" stroke-width="2" stroke-linecap="round" stroke-linejoin="round"/>
<path d="M24 2C11.8497 2 2 11.8497 2 24C2 26.4472 2.39958 28.8011 3.13704 31" stroke="#56BB90" stroke-width="2" stroke-linecap="round"/>
</g>
<defs>
<clipPath id="clip0_76_245">
<rect width="48" height="48" fill="white"/>
</clipPath>
</defs>
</svg>
