<svg width="58" height="58" viewBox="0 0 58 58" fill="none" xmlns="http://www.w3.org/2000/svg">
<path d="M50.75 39.6817V48.227C50.7503 48.8388 50.5185 49.428 50.1013 49.8756C49.6842 50.3233 49.1128 50.596 48.5025 50.6388C47.4464 50.7113 46.5837 50.75 45.9167 50.75C24.5606 50.75 7.25 33.4394 7.25 12.0833C7.25 11.4163 7.28625 10.5536 7.36117 9.4975C7.404 8.88716 7.67674 8.31578 8.12436 7.89865C8.57198 7.48153 9.16116 7.24972 9.773 7.25H18.3183C18.6181 7.2497 18.9073 7.36083 19.1297 7.5618C19.3521 7.76277 19.4919 8.03924 19.5218 8.3375C19.5774 8.89333 19.6282 9.33558 19.6765 9.6715C20.1568 13.0232 21.141 16.2831 22.5958 19.3406C22.8254 19.8239 22.6756 20.4015 22.2406 20.7108L17.0254 24.4373C20.2141 31.8673 26.1352 37.7883 33.5651 40.977L37.2868 35.7715C37.4389 35.5588 37.6608 35.4063 37.9139 35.3405C38.1669 35.2747 38.4351 35.2998 38.6715 35.4114C41.7286 36.8635 44.9877 37.8453 48.3382 38.3235C48.6741 38.3718 49.1163 38.425 49.6673 38.4782C49.9652 38.5087 50.241 38.6487 50.4415 38.8711C50.642 39.0934 50.7528 39.3823 50.7524 39.6817H50.75Z" fill="#56BB90"/>
</svg>
