<svg width="24" height="24" viewBox="0 0 24 24" fill="none" xmlns="http://www.w3.org/2000/svg">
<path d="M21.6779 7.97978L20.2629 9.39278L18.1429 7.27278L16.0209 9.39278L19.5559 12.9288L18.1419 14.3428L17.4349 13.6358L11.0709 19.9998H5.41391L3.29291 22.1208L1.87891 20.7068L3.99991 18.5858V12.9288L10.3639 6.56478L9.65691 5.85778L11.0709 4.44378L14.6069 7.97878L16.7269 5.85778L14.6069 3.73678L16.0209 2.32178L21.6779 7.97878V7.97978ZM9.65691 14.3418L6.82791 11.5138L5.41391 12.9278L8.24291 15.7558L9.65691 14.3418ZM12.4849 11.5138L9.65691 8.68578L8.24291 10.1008L11.0709 12.9288L12.4849 11.5148V11.5138Z" fill="#56BB90"/>
</svg>
