<svg width="16" height="16" viewBox="0 0 16 16" fill="none" xmlns="http://www.w3.org/2000/svg">
<path fill-rule="evenodd" clip-rule="evenodd" d="M7.9925 0.5C3.8525 0.5 0.5 3.86 0.5 8C0.5 12.14 3.8525 15.5 7.9925 15.5C12.14 15.5 15.5 12.14 15.5 8C15.5 3.86 12.14 0.5 7.9925 0.5ZM8.5 5C8.5 4.44772 8.05228 4 7.5 4C6.94772 4 6.5 4.44772 6.5 5V8.5C6.5 8.83435 6.6671 9.14658 6.9453 9.33205L9.9453 11.3321C10.4048 11.6384 11.0257 11.5142 11.3321 11.0547C11.6384 10.5952 11.5142 9.9743 11.0547 9.66795L8.5 7.96482V5Z" fill="#4B5355"/>
</svg>
